<?xml version="1.0" encoding="UTF-8"?>
<svg id="Layer_1" xmlns="http://www.w3.org/2000/svg" version="1.1" viewBox="0 0 1000 1000">
  <!-- Generator: Adobe Illustrator 29.8.5, SVG Export Plug-In . SVG Version: 2.1.1 Build 2)  -->
  <defs>
    <style>
      .st0 {
        fill: #c7d1c2;
      }

      .st0, .st1 {
        stroke: #c7d1c2;
        stroke-miterlimit: 10;
        stroke-width: 5px;
      }

      .st1 {
        fill: none;
      }
    </style>
  </defs>
  <polygon class="st0" points="162.5 79.62 78.12 164 78.12 79.62 162.5 79.62"/>
  <path class="st0" d="M837.5,79.62c-23.3,0-44.39,9.44-59.66,24.72-15.27,15.26-24.71,36.36-24.71,59.66v84.38h-84.38c-46.6,0-84.37-37.78-84.37-84.38,0-23.3-9.44-44.4-24.72-59.66-15.26-15.28-36.36-24.72-59.66-24.72s-44.4,9.44-59.66,24.72c-15.28,15.26-24.72,36.36-24.72,59.66s-9.44,44.4-24.71,59.66c-15.27,15.28-36.36,24.72-59.66,24.72-46.6,0-84.38-37.78-84.38-84.38,0-23.3-9.44-44.4-24.71-59.66-15.27-15.28-36.36-24.72-59.66-24.72l-84.38,84.38c0,46.6,37.78,84.38,84.38,84.38,23.3,0,44.39,9.44,59.66,24.71,15.27,15.27,24.71,36.36,24.71,59.66,0,46.6,37.78,84.38,84.38,84.38h84.37v84.37c0,23.3-9.44,44.4-24.71,59.66-15.27,15.28-36.36,24.72-59.66,24.72s-44.39,9.44-59.67,24.71c-15.26,15.27-24.71,36.36-24.71,59.66s-9.44,44.39-24.71,59.67c-15.27,15.26-36.36,24.71-59.66,24.71s-44.4,9.44-59.66,24.71c-15.28,15.27-24.72,36.36-24.72,59.66l84.38,84.38c23.3,0,44.39-9.44,59.66-24.72,15.27-15.26,24.71-36.36,24.71-59.66s9.45-44.39,24.71-59.66c15.28-15.27,36.37-24.71,59.67-24.71s44.39-9.45,59.66-24.71c15.27-15.28,24.71-36.37,24.71-59.67s9.44-44.39,24.72-59.66c15.26-15.27,36.36-24.71,59.66-24.71s44.4-9.44,59.66-24.72c15.28-15.26,24.72-36.36,24.72-59.66s9.44-44.39,24.71-59.66c15.27-15.27,36.36-24.71,59.66-24.71s44.39-9.45,59.67-24.71c15.26-15.28,24.71-36.37,24.71-59.67s9.44-44.39,24.71-59.66c15.27-15.27,36.36-24.71,59.66-24.71s44.4-9.44,59.66-24.72c15.28-15.26,24.72-36.36,24.72-59.66v-84.38h-84.38ZM559.66,392.42c-15.26,15.26-36.36,24.71-59.66,24.71-46.6,0-84.38-37.78-84.38-84.38,0-23.3,9.44-44.39,24.72-59.66,15.26-15.27,36.36-24.71,59.66-24.71s44.4,9.44,59.66,24.71c15.28,15.27,24.72,36.36,24.72,59.66s-9.44,44.39-24.72,59.67Z"/>
  <path class="st0" d="M753.13,164v84.38h-84.38c23.3,0,44.39-9.44,59.67-24.72,15.26-15.26,24.71-36.36,24.71-59.66Z"/>
  <path class="st1" d="M78.12,501.5c0,46.6,37.78,84.38,84.38,84.38"/>
  <path class="st1" d="M78.12,501.5c0-23.3,9.44-44.39,24.72-59.66,15.26-15.27,36.36-24.71,59.66-24.71"/>
  <path class="st0" d="M415.62,417.13v84.37c0-23.3-9.44-44.39-24.71-59.66-15.27-15.27-36.36-24.71-59.66-24.71h84.37Z"/>
  <path class="st0" d="M331.25,585.88c-23.3,0-44.39,9.44-59.67,24.71-15.26,15.27-24.71,36.36-24.71,59.66,0-23.3-9.44-44.39-24.71-59.66-15.27-15.27-36.36-24.71-59.66-24.71-46.6,0-84.38-37.78-84.38-84.38,0-23.3,9.44-44.39,24.72-59.66,15.26-15.27,36.36-24.71,59.66-24.71s44.39-9.45,59.66-24.71c15.27-15.28,24.71-36.37,24.71-59.67,0,46.6,37.78,84.38,84.38,84.38-23.3,0-44.39,9.44-59.67,24.71-15.26,15.27-24.71,36.36-24.71,59.66,0,46.6,37.78,84.38,84.38,84.38Z"/>
  <path class="st0" d="M921.88,839c0,23.3-9.44,44.4-24.72,59.66-15.26,15.28-36.36,24.72-59.66,24.72-46.6,0-84.37-37.78-84.37-84.38,0-23.3-9.45-44.39-24.71-59.66-15.28-15.27-36.37-24.71-59.67-24.71-46.6,0-84.37-37.78-84.37-84.38,0-23.3-9.44-44.39-24.72-59.66-15.26-15.27-36.36-24.71-59.66-24.71,23.3,0,44.4-9.44,59.66-24.72,15.28-15.26,24.72-36.36,24.72-59.66,0,46.6,37.77,84.38,84.37,84.38,23.3,0,44.39,9.44,59.67,24.71,15.26,15.27,24.71,36.36,24.71,59.66,0,46.6,37.77,84.38,84.37,84.38,23.3,0,44.4,9.44,59.66,24.71,15.28,15.27,24.72,36.36,24.72,59.66Z"/>
  <path class="st0" d="M668.75,754.63c-23.3,0-44.39,9.44-59.66,24.71s-24.71,36.36-24.71,59.66-9.44,44.4-24.72,59.66c-15.26,15.28-36.36,24.72-59.66,24.72-46.6,0-84.38-37.78-84.38-84.38,0-23.3-9.44-44.39-24.71-59.66-15.27-15.27-36.36-24.71-59.66-24.71,23.3,0,44.39-9.45,59.66-24.71,15.27-15.28,24.71-36.37,24.71-59.67,0,46.6,37.78,84.38,84.38,84.38,23.3,0,44.4-9.45,59.66-24.71,15.28-15.28,24.72-36.37,24.72-59.67,0,46.6,37.77,84.38,84.37,84.38Z"/>
  <path class="st0" d="M921.88,501.5c0,23.3-9.44,44.4-24.72,59.66-15.26,15.28-36.36,24.72-59.66,24.72s-44.39,9.44-59.66,24.71-24.71,36.36-24.71,59.66c0-23.3-9.45-44.39-24.71-59.66-15.28-15.27-36.37-24.71-59.67-24.71,23.3,0,44.39-9.44,59.67-24.72,15.26-15.26,24.71-36.36,24.71-59.66s-9.45-44.39-24.71-59.66c-15.28-15.27-36.37-24.71-59.67-24.71,23.3,0,44.39-9.45,59.67-24.71,15.26-15.28,24.71-36.37,24.71-59.67,0,46.6,37.77,84.38,84.37,84.38,23.3,0,44.4,9.44,59.66,24.71,15.28,15.27,24.72,36.36,24.72,59.66Z"/>
  <path class="st0" d="M162.5,923.38c-46.6,0-84.38-37.78-84.38-84.38l84.38,84.38Z"/>
</svg>